<?xml version="1.0" encoding="UTF-8" standalone="no"?>
<!-- Created with Inkscape (http://www.inkscape.org/) -->

<svg
   width="16"
   height="16"
   viewBox="0 0 4.2333333 4.2333333"
   fill="none"
   xmlns="http://www.w3.org/2000/svg">
  <path
     fill-rule="evenodd"
     clip-rule="evenodd"
     d="m 2.1171834,0.17466634 c -1.0701429,10e-9 -1.94200035,0.87185756 -1.94200029,1.94200036 6e-8,1.0701427 0.87185759,1.9420003 1.94200029,1.9420003 1.0701428,0 1.9420004,-0.8718574 1.9420004,-1.9420003 1e-7,-1.0701428 -0.8718575,-1.94200037 -1.9420004,-1.94200036 z m 0,0.38705648 c 0.8604521,0 1.5528768,0.69449178 1.5528768,1.55494388 -10e-8,0.8604521 -0.6924248,1.5528768 -1.5528768,1.5528768 -0.8604519,0 -1.55494376,-0.6924247 -1.55494382,-1.5528768 -3e-8,-0.860452 0.69449172,-1.55494387 1.55494382,-1.55494388 z M 2.0024618,0.72140299 A 0.19401941,0.19401941 0 0 0 1.8066081,0.91467285 V 1.144633 A 0.19401941,0.19401941 0 0 0 2.0024618,1.3384196 H 2.2319051 A 0.19401941,0.19401941 0 0 0 2.4256917,1.144633 V 0.91467285 A 0.19401941,0.19401941 0 0 0 2.2319051,0.72140299 Z M 2.0174479,1.5446086 A 0.19401941,0.19401941 0 0 0 1.8236613,1.7378784 v 1.5807821 a 0.19401941,0.19401941 0 0 0 0.1937866,0.1932698 h 0.197404 A 0.19401941,0.19401941 0 0 0 2.4086385,3.3186605 V 1.7378784 A 0.19401941,0.19401941 0 0 0 2.2148519,1.5446086 Z"
     fill="currentColor" />
</svg>
